<svg xmlns="http://www.w3.org/2000/svg" width="1024" height="1024" fill="none"><path fill="#101017" d="M0 0h1024v1024H0z"/><path fill="url(#a)" d="M496 544V309.333c0-3.462-1.07-6.883-3.41-9.431C472.184 277.707 433.625 272 416 272h-80c-8.836 0-16 7.163-16 16v208c0 8.837 7.164 16 16 16h56c18.664 0 80 8 104 32Z"/><path fill="url(#b)" d="M528 544V309.333c0-3.462 1.07-6.883 3.41-9.431C551.816 277.707 590.375 272 608 272h80c8.836 0 16 7.163 16 16v208c0 8.837-7.164 16-16 16h-56c-18.664 0-80 8-104 32Z"/><path fill="url(#c)" d="M320 544c0-8.119 6.047-8.072 13.883-8.012L336 536h56c56.629 0 100.68 22.902 120 40 19.32-17.098 63.371-40 120-40h56l1.25-.006.867-.006c7.836-.06 13.883-.107 13.883 8.012 0 8.837-7.164 24-16 24h-56c-57.375 0-96.094 28.796-108.688 41.391-6.246 6.248-16.378 6.248-22.624 0C488.094 596.796 449.375 568 392 568h-56c-8.836 0-16-15.163-16-24Z"/><path fill="url(#d)" fill-rule="evenodd" d="M832 896c35.348 0 64-28.653 64-64V305.727c0-11.6-3.152-22.981-9.121-32.928l-68.234-113.727A64.001 64.001 0 0 0 763.766 128H260.234a63.994 63.994 0 0 0-54.875 31.072l-68.238 113.727A63.992 63.992 0 0 0 128 305.727V832c0 35.347 28.656 64 64 64h640ZM224 192c0-17.673 14.328-32 32-32h512c17.672 0 32 14.327 32 32v453.558a95.958 95.958 0 0 0 10.137 42.931l52.175 104.356c3.95 7.903.747 17.514-7.156 21.466-7.906 3.952-17.515.748-21.468-7.156l-42.735-85.466A32 32 0 0 0 762.332 704H261.664a31.994 31.994 0 0 0-28.617 17.689l-42.735 85.466c-3.953 7.904-13.562 11.108-21.468 7.156-7.903-3.952-11.106-13.563-7.156-21.466l52.179-104.352A96.007 96.007 0 0 0 224 645.562V192Z" clip-rule="evenodd"/><defs><linearGradient id="a" x1="128" x2="904" y1="128" y2="896" gradientUnits="userSpaceOnUse"><stop stop-color="#0099B4"/><stop offset="1" stop-color="#6D9343"/></linearGradient><linearGradient id="b" x1="128" x2="904" y1="128" y2="896" gradientUnits="userSpaceOnUse"><stop stop-color="#0099B4"/><stop offset="1" stop-color="#6D9343"/></linearGradient><linearGradient id="c" x1="128" x2="904" y1="128" y2="896" gradientUnits="userSpaceOnUse"><stop stop-color="#0099B4"/><stop offset="1" stop-color="#6D9343"/></linearGradient><linearGradient id="d" x1="128" x2="904" y1="128" y2="896" gradientUnits="userSpaceOnUse"><stop stop-color="#0099B4"/><stop offset="1" stop-color="#6D9343"/></linearGradient></defs></svg>