<svg xmlns="http://www.w3.org/2000/svg" width="1024" height="1024" fill="none"><g clip-path="url(#a)"><path fill="url(#b)" d="M490.667 554.667v-312.89c0-4.616-1.427-9.177-4.547-12.574C458.911 199.609 407.5 192 384 192H277.333C265.552 192 256 201.551 256 213.333v277.334c0 11.782 9.552 21.333 21.333 21.333H352c24.885 0 106.667 10.667 138.667 42.667Z"/><path fill="url(#c)" d="M533.333 554.667v-312.89c0-4.616 1.427-9.177 4.547-12.574C565.089 199.609 616.5 192 640 192h106.667c11.781 0 21.333 9.551 21.333 21.333v277.334c0 11.782-9.552 21.333-21.333 21.333H672c-24.885 0-106.667 10.667-138.667 42.667Z"/><path fill="url(#d)" d="M256 554.667c0-10.826 8.063-10.763 18.51-10.683l2.823.016H352c75.505 0 134.24 30.536 160 53.333C537.76 574.536 596.495 544 672 544h74.667l1.666-.008 1.157-.008c10.448-.08 18.51-.143 18.51 10.683 0 11.782-9.552 32-21.333 32H672c-76.5 0-128.125 38.394-144.917 55.187-8.328 8.331-21.838 8.331-30.166 0C480.125 625.061 428.5 586.667 352 586.667h-74.667c-11.781 0-21.333-20.218-21.333-32Z"/><path fill="url(#e)" fill-rule="evenodd" d="M938.667 1024c47.13 0 85.333-38.204 85.333-85.333V236.969a85.31 85.31 0 0 0-12.16-43.904L920.859 41.43A85.33 85.33 0 0 0 847.688 0H176.313a85.324 85.324 0 0 0-73.167 41.43L12.162 193.065A85.328 85.328 0 0 0 0 236.969v701.698C0 985.796 38.208 1024 85.333 1024h853.334ZM128 85.333c0-23.563 19.104-42.666 42.667-42.666h682.666C876.896 42.667 896 61.77 896 85.333v604.744a127.94 127.94 0 0 0 13.516 57.242l69.567 139.141c5.266 10.537.995 23.353-9.541 28.621-10.542 5.269-23.354.997-28.625-9.541l-56.979-113.954A42.666 42.666 0 0 0 845.776 768H178.219a42.656 42.656 0 0 0-38.156 23.586L83.083 905.54c-5.27 10.538-18.083 14.81-28.625 9.541-10.536-5.268-14.807-18.084-9.541-28.621l69.573-139.136A128.014 128.014 0 0 0 128 690.082V85.333Z" clip-rule="evenodd"/></g><defs><linearGradient id="b" x1="0" x2="1034.67" y1="0" y2="1024" gradientUnits="userSpaceOnUse"><stop stop-color="#0099B4"/><stop offset="1" stop-color="#6D9343"/></linearGradient><linearGradient id="c" x1="0" x2="1034.67" y1="0" y2="1024" gradientUnits="userSpaceOnUse"><stop stop-color="#0099B4"/><stop offset="1" stop-color="#6D9343"/></linearGradient><linearGradient id="d" x1="0" x2="1034.67" y1="0" y2="1024" gradientUnits="userSpaceOnUse"><stop stop-color="#0099B4"/><stop offset="1" stop-color="#6D9343"/></linearGradient><linearGradient id="e" x1="0" x2="1034.67" y1="0" y2="1024" gradientUnits="userSpaceOnUse"><stop stop-color="#0099B4"/><stop offset="1" stop-color="#6D9343"/></linearGradient><clipPath id="a"><path fill="#fff" d="M0 0h1024v1024H0z"/></clipPath></defs></svg>