<svg width="1024" height="1024" viewBox="0 0 1024 1024" fill="none" xmlns="http://www.w3.org/2000/svg">
<rect width="1024" height="1024" fill="#101017"/>
<path d="M496 544V309.333C496 305.871 494.93 302.45 492.59 299.902C472.184 277.707 433.625 272 416 272H336C327.164 272 320 279.163 320 288V496C320 504.837 327.164 512 336 512H392C410.664 512 472 520 496 544Z" fill="url(#paint0_linear_473_54)"/>
<path d="M528 544V309.333C528 305.871 529.07 302.45 531.41 299.902C551.816 277.707 590.375 272 608 272H688C696.836 272 704 279.163 704 288V496C704 504.837 696.836 512 688 512H632C613.336 512 552 520 528 544Z" fill="url(#paint1_linear_473_54)"/>
<path d="M320 544C320 535.881 326.047 535.928 333.883 535.988L336 536H392C448.629 536 492.68 558.902 512 576C531.32 558.902 575.371 536 632 536H688L689.25 535.994L690.117 535.988C697.953 535.928 704 535.881 704 544C704 552.837 696.836 568 688 568H632C574.625 568 535.906 596.796 523.312 609.391C517.066 615.639 506.934 615.639 500.688 609.391C488.094 596.796 449.375 568 392 568H336C327.164 568 320 552.837 320 544Z" fill="url(#paint2_linear_473_54)"/>
<path fill-rule="evenodd" clip-rule="evenodd" d="M832 896C867.348 896 896 867.347 896 832V305.727C896 294.127 892.848 282.746 886.879 272.799L818.645 159.072C807.078 139.795 786.246 128 763.766 128H260.234C237.758 128 216.922 139.795 205.359 159.072L137.121 272.799C131.152 282.746 128 294.127 128 305.727V832C128 867.347 156.656 896 192 896H832ZM224 192C224 174.327 238.328 160 256 160H768C785.672 160 800 174.327 800 192V645.558C800 660.461 803.469 675.159 810.137 688.489L862.312 792.845C866.262 800.748 863.059 810.359 855.156 814.311C847.25 818.263 837.641 815.059 833.688 807.155L790.953 721.689C785.531 710.848 774.453 704 762.332 704H261.664C249.547 704 238.465 710.848 233.047 721.689L190.312 807.155C186.359 815.059 176.75 818.263 168.844 814.311C160.941 810.359 157.738 800.748 161.688 792.845L213.867 688.493C220.531 675.163 224 660.465 224 645.562V192Z" fill="url(#paint3_linear_473_54)"/>
<defs>
<linearGradient id="paint0_linear_473_54" x1="128" y1="128" x2="904" y2="896" gradientUnits="userSpaceOnUse">
<stop stop-color="#0099B4"/>
<stop offset="1" stop-color="#6D9343"/>
</linearGradient>
<linearGradient id="paint1_linear_473_54" x1="128" y1="128" x2="904" y2="896" gradientUnits="userSpaceOnUse">
<stop stop-color="#0099B4"/>
<stop offset="1" stop-color="#6D9343"/>
</linearGradient>
<linearGradient id="paint2_linear_473_54" x1="128" y1="128" x2="904" y2="896" gradientUnits="userSpaceOnUse">
<stop stop-color="#0099B4"/>
<stop offset="1" stop-color="#6D9343"/>
</linearGradient>
<linearGradient id="paint3_linear_473_54" x1="128" y1="128" x2="904" y2="896" gradientUnits="userSpaceOnUse">
<stop stop-color="#0099B4"/>
<stop offset="1" stop-color="#6D9343"/>
</linearGradient>
</defs>
</svg>
