<svg width="1024" height="1024" viewBox="0 0 1024 1024" fill="none" xmlns="http://www.w3.org/2000/svg">
<g clip-path="url(#clip0_470_51)">
<path d="M490.667 554.667V241.777C490.667 237.161 489.24 232.6 486.12 229.203C458.911 199.609 407.5 192 384 192H277.333C265.552 192 256 201.551 256 213.333V490.667C256 502.449 265.552 512 277.333 512H352C376.885 512 458.667 522.667 490.667 554.667Z" fill="url(#paint0_linear_470_51)"/>
<path d="M533.333 554.667V241.777C533.333 237.161 534.76 232.6 537.88 229.203C565.089 199.609 616.5 192 640 192H746.667C758.448 192 768 201.551 768 213.333V490.667C768 502.449 758.448 512 746.667 512H672C647.115 512 565.333 522.667 533.333 554.667Z" fill="url(#paint1_linear_470_51)"/>
<path d="M256 554.667C256 543.841 264.063 543.904 274.51 543.984L277.333 544H352C427.505 544 486.24 574.536 512 597.333C537.76 574.536 596.495 544 672 544H746.667L748.333 543.992L749.49 543.984C759.938 543.904 768 543.841 768 554.667C768 566.449 758.448 586.667 746.667 586.667H672C595.5 586.667 543.875 625.061 527.083 641.854C518.755 650.185 505.245 650.185 496.917 641.854C480.125 625.061 428.5 586.667 352 586.667H277.333C265.552 586.667 256 566.449 256 554.667Z" fill="url(#paint2_linear_470_51)"/>
<path fill-rule="evenodd" clip-rule="evenodd" d="M938.667 1024C985.797 1024 1024 985.796 1024 938.667V236.969C1024 221.503 1019.8 206.328 1011.84 193.065L920.859 41.4297C905.438 15.7266 877.661 0 847.688 0H176.313C146.344 0 118.563 15.7266 103.146 41.4297L12.1615 193.065C4.20313 206.328 0 221.503 0 236.969V938.667C0 985.796 38.2083 1024 85.3333 1024H938.667ZM128 85.3333C128 61.7695 147.104 42.6667 170.667 42.6667H853.333C876.896 42.6667 896 61.7695 896 85.3333V690.077C896 709.948 900.625 729.546 909.516 747.319L979.083 886.46C984.349 896.997 980.078 909.813 969.542 915.081C959 920.35 946.188 916.078 940.917 905.54L883.938 791.586C876.708 777.13 861.938 768 845.776 768H178.219C162.063 768 147.286 777.13 140.063 791.586L83.0833 905.54C77.8125 916.078 65 920.35 54.4583 915.081C43.9219 909.813 39.651 896.997 44.9167 886.46L114.49 747.324C123.375 729.551 128 709.953 128 690.082V85.3333Z" fill="url(#paint3_linear_470_51)"/>
</g>
<defs>
<linearGradient id="paint0_linear_470_51" x1="0" y1="0" x2="1034.67" y2="1024" gradientUnits="userSpaceOnUse">
<stop stop-color="#0099B4"/>
<stop offset="1" stop-color="#6D9343"/>
</linearGradient>
<linearGradient id="paint1_linear_470_51" x1="0" y1="0" x2="1034.67" y2="1024" gradientUnits="userSpaceOnUse">
<stop stop-color="#0099B4"/>
<stop offset="1" stop-color="#6D9343"/>
</linearGradient>
<linearGradient id="paint2_linear_470_51" x1="0" y1="0" x2="1034.67" y2="1024" gradientUnits="userSpaceOnUse">
<stop stop-color="#0099B4"/>
<stop offset="1" stop-color="#6D9343"/>
</linearGradient>
<linearGradient id="paint3_linear_470_51" x1="0" y1="0" x2="1034.67" y2="1024" gradientUnits="userSpaceOnUse">
<stop stop-color="#0099B4"/>
<stop offset="1" stop-color="#6D9343"/>
</linearGradient>
<clipPath id="clip0_470_51">
<rect width="1024" height="1024" fill="white"/>
</clipPath>
</defs>
</svg>
